<?xml version="1.0" standalone="no"?>
<!DOCTYPE svg PUBLIC "-//W3C//DTD SVG 20010904//EN"
 "http://www.w3.org/TR/2001/REC-SVG-20010904/DTD/svg10.dtd">
<svg version="1.0" xmlns="http://www.w3.org/2000/svg"
 width="160.000000pt" height="145.000000pt" viewBox="0 0 160.000000 145.000000"
 preserveAspectRatio="xMidYMid meet">
<metadata>
Created by potrace 1.10, written by Peter Selinger 2001-2011
</metadata>
<g transform="translate(0.000000,145.000000) scale(0.100000,-0.100000)"
fill="#000000" stroke="none">
<path d="M936 1437 c3 -10 9 -15 12 -12 3 3 0 11 -7 18 -10 9 -11 8 -5 -6z"/>
<path d="M560 1399 c-349 -94 -568 -449 -495 -804 45 -217 184 -390 388 -485
98 -46 168 -60 298 -60 98 0 129 4 195 26 106 34 195 85 184 104 -34 64 -12
178 46 234 49 48 96 67 158 67 l54 0 18 62 c27 92 29 264 4 362 -62 243 -252
433 -496 495 -104 27 -252 26 -354 -1z m270 -13 c0 -5 15 -6 34 -3 19 3 37 3
40 -1 6 -6 29 -12 53 -14 6 -1 9 -8 6 -17 -5 -13 -3 -13 7 -4 15 14 45 3 104
-39 21 -15 42 -26 46 -23 4 2 6 -11 5 -30 -1 -35 -1 -35 18 -14 25 27 36 15
11 -13 l-19 -22 29 18 c26 17 28 17 23 2 -4 -9 -3 -15 2 -12 13 9 34 -21 25
-36 -6 -10 -3 -9 9 1 17 13 18 13 21 -11 0 -7 8 -13 16 -13 8 0 16 -6 16 -12
1 -7 2 -20 3 -29 0 -8 5 -13 10 -10 8 6 74 -119 74 -141 0 -7 4 -13 9 -13 5 0
6 -12 2 -27 -3 -18 -2 -23 3 -15 6 8 14 -15 22 -68 13 -80 9 -136 -9 -125 -12
7 -12 -3 0 -30 8 -19 9 -19 9 -1 1 11 4 17 7 14 3 -3 0 -26 -6 -49 -7 -24 -13
-56 -14 -71 -1 -15 -6 -31 -11 -35 -4 -4 -5 0 -2 9 3 10 2 20 -3 23 -5 3 -7
-9 -6 -27 3 -32 3 -33 -39 -34 -24 -1 -57 -8 -74 -17 -17 -9 -41 -14 -52 -12
-11 2 -17 0 -14 -6 4 -5 12 -6 18 -3 7 4 2 -3 -10 -14 -13 -14 -29 -20 -40
-16 -15 5 -15 4 -3 -5 8 -5 11 -14 6 -18 -4 -4 -14 1 -23 12 -15 20 -15 19 -8
-3 4 -14 0 -37 -10 -58 -21 -44 -35 -134 -25 -154 4 -8 4 -26 -1 -39 -7 -18
-15 -22 -34 -19 -22 5 -23 3 -13 -10 9 -11 9 -13 1 -9 -6 4 -17 2 -25 -5 -7
-7 -19 -13 -25 -14 -36 -3 -38 -4 -23 -15 12 -9 12 -10 -3 -5 -10 3 -28 1 -39
-5 -11 -6 -34 -13 -51 -15 -54 -8 -213 -8 -225 0 -7 4 -20 5 -30 2 -9 -3 -30
1 -45 9 -15 8 -34 12 -41 9 -8 -3 -17 -1 -21 5 -3 6 -15 11 -26 11 -10 0 -19
5 -19 11 0 5 -5 7 -10 4 -6 -3 -10 -1 -10 4 0 14 13 14 28 -1 7 -7 12 -8 12
-2 0 6 -12 16 -26 22 -14 7 -23 8 -20 3 3 -5 -1 -12 -10 -15 -8 -3 -13 -2 -10
3 3 5 -1 12 -10 15 -10 4 -13 2 -9 -7 4 -6 1 -5 -7 3 -7 8 -26 21 -41 29 -16
9 -26 20 -23 28 3 7 -1 13 -10 13 -9 0 -12 -5 -8 -12 4 -7 3 -8 -5 -4 -6 4 -9
12 -6 17 4 5 1 9 -5 9 -6 0 -8 4 -5 10 3 5 0 10 -7 10 -12 0 -44 30 -98 95
-14 16 -18 24 -8 17 14 -11 17 -10 23 7 3 12 11 21 17 21 6 0 7 -8 3 -17 -5
-14 -3 -15 6 -6 18 18 1 33 -35 29 -29 -4 -35 -1 -49 30 -20 42 -22 59 -3 24
l14 -25 -1 27 c-1 14 -6 24 -10 21 -5 -3 -11 5 -14 18 -6 22 -7 22 -14 3 -7
-17 -8 -17 -8 4 -1 13 -6 33 -12 44 -8 16 -8 19 1 13 9 -5 8 -1 -1 16 -14 26
-29 250 -17 242 5 -2 8 7 8 22 0 14 7 42 15 62 8 19 15 44 15 55 0 21 39 100
53 106 4 2 7 12 7 22 0 10 11 25 24 33 23 15 24 15 20 -6 -4 -21 -4 -21 5 -2
5 12 5 25 -1 33 -7 8 -7 12 1 12 6 0 22 18 36 40 14 22 29 39 33 37 4 -1 18 8
32 21 13 12 30 22 37 22 8 0 11 6 8 13 -4 6 1 3 9 -7 9 -11 16 -14 16 -8 0 7
10 17 23 23 20 8 19 9 -8 5 l-30 -5 32 14 c18 8 34 15 35 14 2 0 29 11 60 25
32 14 64 23 73 20 9 -4 15 -1 15 7 0 11 2 11 8 2 6 -9 18 -9 52 2 48 15 170
16 170 1z m-630 -996 c0 -5 -2 -10 -4 -10 -3 0 -8 5 -11 10 -3 6 -1 10 4 10 6
0 11 -4 11 -10z"/>
<path d="M990 1330 c0 -5 5 -10 11 -10 5 0 7 5 4 10 -3 6 -8 10 -11 10 -2 0
-4 -4 -4 -10z"/>
<path d="M450 1316 c0 -2 7 -7 16 -10 8 -3 12 -2 9 4 -6 10 -25 14 -25 6z"/>
<path d="M1008 1303 c6 -2 18 -2 25 0 6 3 1 5 -13 5 -14 0 -19 -2 -12 -5z"/>
<path d="M325 1240 c-3 -5 1 -10 9 -10 9 0 16 5 16 10 0 6 -4 10 -9 10 -6 0
-13 -4 -16 -10z"/>
<path d="M355 1220 c-3 -6 1 -7 9 -4 18 7 21 14 7 14 -6 0 -13 -4 -16 -10z"/>
<path d="M1204 1149 c1 -7 12 -13 24 -14 17 -1 19 1 10 12 -8 10 -13 11 -18 2
-6 -8 -9 -8 -13 0 -4 8 -5 8 -3 0z"/>
<path d="M487 1122 c-3 -4 -3 -16 -1 -26 1 -10 -4 -29 -12 -41 -12 -19 -15
-77 -14 -345 0 -230 4 -328 12 -344 7 -11 12 -24 13 -28 0 -3 4 -10 9 -15 5
-5 6 -3 2 5 -4 6 -2 12 3 12 6 0 11 -4 11 -9 0 -5 8 -12 18 -16 26 -12 121
-22 116 -13 -3 4 31 8 76 8 52 0 79 -4 75 -10 -9 -15 34 -12 93 5 34 10 50 20
46 27 -5 8 -1 9 12 4 10 -4 15 -4 11 0 -4 4 1 16 10 27 16 17 18 50 20 336 3
317 -1 363 -33 375 -8 3 -14 12 -14 21 0 9 -9 15 -22 15 -14 0 -18 3 -11 8 6
4 -76 7 -182 7 -107 0 -193 -3 -192 -8 1 -5 -9 -13 -23 -18 -23 -8 -23 -8 -7
5 15 12 15 14 3 19 -9 4 -17 3 -19 -1z m444 -60 l30 -33 -3 -325 -3 -326 -28
-24 c-27 -23 -32 -24 -206 -24 l-177 0 -30 31 -29 30 -3 299 c-2 164 1 314 6
332 5 21 21 42 43 56 33 22 40 23 202 20 l169 -3 29 -33z"/>
<path d="M530 1050 c-19 -19 -20 -33 -20 -339 l0 -320 26 -20 c24 -19 40 -21
180 -21 165 0 198 7 210 42 4 13 7 161 7 330 1 285 -1 309 -18 328 -17 19 -30
20 -192 20 -160 0 -175 -2 -193 -20z m360 -30 c19 -19 20 -33 20 -243 0 -163
-3 -228 -12 -240 -11 -14 -35 -17 -171 -18 -109 0 -163 3 -173 11 -11 10 -14
54 -14 244 0 127 4 236 8 242 13 20 35 22 180 23 129 1 144 -1 162 -19z m-345
-510 c3 -5 1 -10 -4 -10 -6 0 -11 5 -11 10 0 6 2 10 4 10 3 0 8 -4 11 -10z
m365 -4 c0 -3 -4 -8 -10 -11 -5 -3 -10 -1 -10 4 0 6 5 11 10 11 6 0 10 -2 10
-4z m-14 -51 c15 -23 15 -27 0 -50 -16 -25 -17 -25 -174 -25 -169 0 -182 3
-182 50 0 47 13 50 182 50 157 0 158 0 174 -25z"/>
<path d="M564 997 c-2 -7 -3 -111 -2 -232 l3 -220 158 -3 157 -3 0 236 0 235
-155 0 c-117 0 -157 -3 -161 -13z m58 -22 c5 -7 8 -7 8 0 0 6 35 9 90 7 49 -2
90 -6 90 -10 0 -19 -37 -58 -50 -55 -11 4 -12 2 -2 -5 14 -9 5 -45 -9 -36 -5
3 -16 -13 -25 -35 -9 -23 -20 -38 -25 -35 -5 3 -6 -3 -2 -12 5 -13 3 -15 -7
-9 -10 6 -12 4 -7 -8 3 -10 2 -17 -3 -17 -6 0 -10 -7 -10 -16 0 -8 -4 -12 -10
-9 -5 3 -10 -3 -10 -15 0 -11 -7 -23 -15 -27 -9 -3 -21 -19 -28 -35 -10 -25
-12 0 -12 150 0 170 5 198 27 167z m247 3 c-1 -20 -252 -411 -266 -416 -29 -9
-5 37 125 234 23 35 42 67 42 69 0 3 16 28 35 56 19 28 35 55 35 60 0 5 7 9
15 9 8 0 15 -6 14 -12z m-23 -405 c-8 -8 -137 -9 -142 -1 -3 4 -11 5 -19 1
-11 -4 -14 0 -9 13 5 18 5 18 -10 0 -12 -15 -16 -16 -16 -5 0 8 14 28 30 44
18 18 28 35 25 44 -3 9 -3 12 1 8 4 -3 14 8 23 26 11 23 23 32 40 32 26 0 39
19 21 30 -5 3 -13 -1 -16 -9 -3 -9 -10 -13 -15 -10 -10 6 19 39 34 39 6 0 12
7 14 15 4 13 3 13 -6 0 -6 -8 -11 -10 -11 -4 0 6 11 23 25 38 14 15 26 32 27
39 1 7 4 -57 5 -142 2 -85 1 -156 -1 -158z"/>
<path d="M771 954 c0 -11 3 -14 6 -6 3 7 2 16 -1 19 -3 4 -6 -2 -5 -13z"/>
<path d="M736 945 c-3 -8 -1 -15 4 -15 6 0 10 7 10 15 0 8 -2 15 -4 15 -2 0
-6 -7 -10 -15z"/>
<path d="M701 604 c0 -11 3 -14 6 -6 3 7 2 16 -1 19 -3 4 -6 -2 -5 -13z"/>
<path d="M564 445 c-4 -8 -1 -22 6 -30 10 -12 40 -15 149 -15 75 0 142 4 149
9 8 5 12 17 10 27 -3 17 -16 19 -156 22 -130 2 -153 0 -158 -13z"/>
<path d="M197 1103 c-4 -3 -7 -11 -7 -17 0 -6 5 -5 12 2 6 6 9 14 7 17 -3 3
-9 2 -12 -2z"/>
<path d="M216 1073 c-6 -14 -5 -15 5 -6 7 7 10 15 7 18 -3 3 -9 -2 -12 -12z"/>
<path d="M1287 1075 c-4 -8 -3 -16 1 -19 4 -3 9 4 9 15 2 23 -3 25 -10 4z"/>
<path d="M140 995 c-15 -28 -6 -46 13 -25 9 10 9 11 0 6 -16 -9 -17 6 -1 22 6
6 9 14 7 17 -3 3 -12 -6 -19 -20z"/>
<path d="M1033 930 c0 -25 2 -35 4 -22 2 12 2 32 0 45 -2 12 -4 2 -4 -23z"/>
<path d="M131 924 c0 -11 3 -14 6 -6 3 7 2 16 -1 19 -3 4 -6 -2 -5 -13z"/>
<path d="M1371 860 c0 -8 4 -22 9 -30 12 -18 12 -2 0 25 -6 13 -9 15 -9 5z"/>
<path d="M1393 770 c0 -25 2 -35 4 -22 2 12 2 32 0 45 -2 12 -4 2 -4 -23z"/>
<path d="M1367 643 c3 -7 6 -13 8 -13 2 0 5 6 8 13 3 8 -1 14 -8 14 -7 0 -11
-6 -8 -14z"/>
<path d="M1160 470 c0 -5 5 -10 11 -10 5 0 7 5 4 10 -3 6 -8 10 -11 10 -2 0
-4 -4 -4 -10z"/>
<path d="M226 318 c3 -4 11 -5 19 -1 21 7 19 12 -4 10 -11 0 -18 -5 -15 -9z"/>
<path d="M281 317 c2 -1 13 -9 24 -17 19 -14 19 -14 6 3 -7 9 -18 17 -24 17
-6 0 -8 -1 -6 -3z"/>
<path d="M270 285 c7 -8 17 -15 22 -15 5 0 3 7 -6 15 -8 8 -18 15 -22 15 -3 0
-1 -7 6 -15z"/>
<path d="M833 273 c9 -2 25 -2 35 0 9 3 1 5 -18 5 -19 0 -27 -2 -17 -5z"/>
<path d="M1060 264 c0 -16 -2 -17 -10 -4 -6 9 -10 10 -10 3 0 -19 20 -26 26
-8 4 9 4 19 0 22 -3 4 -6 -2 -6 -13z"/>
<path d="M311 254 c0 -11 3 -14 6 -6 3 7 2 16 -1 19 -3 4 -6 -2 -5 -13z"/>
<path d="M1072 195 c0 -16 2 -22 5 -12 2 9 2 23 0 30 -3 6 -5 -1 -5 -18z"/>
<path d="M360 206 c0 -2 7 -7 16 -10 8 -3 12 -2 9 4 -6 10 -25 14 -25 6z"/>
<path d="M335 1362 c3 -3 0 -11 -6 -18 -7 -8 -7 -14 1 -19 6 -4 9 -1 8 7 -2 7
4 12 14 10 9 -1 19 2 23 8 4 6 -1 7 -11 3 -10 -4 -15 -2 -11 4 3 5 0 10 -8 10
-8 0 -13 -3 -10 -5z"/>
<path d="M1157 1359 c7 -7 15 -10 18 -7 3 3 -2 9 -12 12 -14 6 -15 5 -6 -5z"/>
<path d="M1170 1331 c0 -5 5 -13 10 -16 6 -3 10 -2 10 4 0 5 -4 13 -10 16 -5
3 -10 2 -10 -4z"/>
<path d="M1250 1269 c0 -5 5 -7 10 -4 13 8 13 -7 0 -23 -5 -7 -3 -6 6 2 9 8
13 19 10 25 -9 14 -26 14 -26 0z"/>
<path d="M1325 1199 c-4 -6 -5 -12 -2 -15 2 -3 7 2 10 11 7 17 1 20 -8 4z"/>
<path d="M169 1173 c-13 -16 -12 -17 4 -4 16 13 21 21 13 21 -2 0 -10 -8 -17
-17z"/>
<path d="M84 1110 c0 -13 4 -16 10 -10 7 7 7 13 0 20 -6 6 -10 3 -10 -10z"/>
<path d="M115 1119 c-4 -6 -5 -12 -2 -15 2 -3 7 2 10 11 7 17 1 20 -8 4z"/>
<path d="M11 604 c0 -11 3 -14 6 -6 3 7 2 16 -1 19 -3 4 -6 -2 -5 -13z"/>
<path d="M1400 470 c0 -5 5 -10 11 -10 5 0 7 5 4 10 -3 6 -8 10 -11 10 -2 0
-4 -4 -4 -10z"/>
<path d="M1430 462 c0 -5 16 -21 36 -37 66 -53 90 -142 64 -235 -10 -34 -60
-100 -76 -100 -4 0 -15 -7 -25 -16 -10 -9 -43 -18 -76 -21 -51 -5 -67 -2 -113
22 -49 24 -53 25 -36 7 10 -12 32 -26 50 -31 65 -21 173 -12 183 15 3 8 9 12
14 9 15 -10 57 36 78 86 12 27 23 71 26 99 2 28 6 61 9 73 3 12 3 16 0 10 -9
-21 -21 -15 -28 12 -4 14 -26 46 -51 70 -44 45 -55 52 -55 37z"/>
<path d="M1540 396 c0 -8 4 -17 9 -20 5 -4 7 3 4 14 -6 23 -13 26 -13 6z"/>
<path d="M96 364 c-5 -14 -4 -15 9 -4 17 14 19 20 6 20 -5 0 -12 -7 -15 -16z"/>
<path d="M1293 365 c-23 -16 -36 -52 -22 -61 5 -3 20 7 34 22 21 22 27 25 40
14 25 -21 17 -46 -29 -83 -24 -20 -46 -45 -49 -57 -5 -19 -1 -20 62 -20 54 0
68 3 68 15 0 11 -12 15 -46 15 l-46 0 38 31 c20 17 42 39 47 50 15 27 2 65
-26 78 -33 15 -45 14 -71 -4z"/>
<path d="M117 347 c-3 -8 1 -14 8 -14 7 0 11 6 8 14 -3 7 -6 13 -8 13 -2 0 -5
-6 -8 -13z"/>
<path d="M160 301 c0 -6 4 -13 10 -16 6 -3 7 1 4 9 -7 18 -14 21 -14 7z"/>
<path d="M243 185 c0 -8 4 -12 9 -9 5 3 6 10 3 15 -9 13 -12 11 -12 -6z"/>
<path d="M1144 131 c0 -11 4 -18 7 -15 4 2 10 0 14 -6 4 -6 10 -8 15 -5 5 3 0
15 -10 25 -25 25 -26 25 -26 1z"/>
<path d="M320 125 c0 -2 10 -10 23 -16 20 -11 21 -11 8 4 -13 16 -31 23 -31
12z"/>
<path d="M1080 106 c0 -2 7 -7 16 -10 8 -3 12 -2 9 4 -6 10 -25 14 -25 6z"/>
<path d="M941 34 c0 -11 3 -14 6 -6 3 7 2 16 -1 19 -3 4 -6 -2 -5 -13z"/>
<path d="M908 33 c7 -3 16 -2 19 1 4 3 -2 6 -13 5 -11 0 -14 -3 -6 -6z"/>
<path d="M518 23 c7 -3 16 -2 19 1 4 3 -2 6 -13 5 -11 0 -14 -3 -6 -6z"/>
</g>
</svg>
