<?xml version="1.0" standalone="no"?>
<!DOCTYPE svg PUBLIC "-//W3C//DTD SVG 20010904//EN"
 "http://www.w3.org/TR/2001/REC-SVG-20010904/DTD/svg10.dtd">
<svg version="1.0" xmlns="http://www.w3.org/2000/svg"
 width="159.000000pt" height="142.000000pt" viewBox="0 0 159.000000 142.000000"
 preserveAspectRatio="xMidYMid meet">
<metadata>
Created by potrace 1.10, written by Peter Selinger 2001-2011
</metadata>
<g transform="translate(0.000000,142.000000) scale(0.100000,-0.100000)"
fill="#000000" stroke="none">
<path d="M490 1410 c-8 -5 -23 -7 -32 -4 -32 10 -19 -4 14 -15 17 -6 29 -8 25
-5 -4 4 -2 13 4 21 13 15 10 16 -11 3z"/>
<path d="M570 1381 c-233 -61 -412 -234 -486 -467 -29 -92 -34 -273 -9 -369
61 -234 246 -425 477 -492 119 -34 290 -33 396 3 108 36 194 85 185 104 -4 8
-9 43 -11 76 -3 47 1 71 16 100 56 109 182 157 275 106 51 -27 107 -79 107
-97 0 -8 5 -15 11 -15 6 0 9 -6 6 -12 -2 -7 0 -24 5 -38 6 -16 5 -45 -3 -83
-13 -65 -62 -126 -120 -152 -19 -8 -28 -14 -21 -15 25 0 90 40 110 68 40 55
55 109 48 169 -3 30 -11 64 -17 75 -20 36 -91 108 -108 108 -38 1 -42 13 -21
85 23 80 27 240 9 325 -55 258 -265 471 -519 526 -88 19 -249 16 -330 -5z
m235 -14 c33 -2 67 -7 74 -12 9 -5 12 -4 8 2 -4 6 3 8 18 5 14 -2 25 -8 25
-13 0 -5 7 -6 15 -3 8 4 15 1 15 -7 0 -7 3 -9 7 -6 3 4 21 -2 39 -14 18 -11
39 -19 46 -18 7 1 21 -1 31 -6 14 -6 15 -10 6 -22 -10 -12 -8 -13 16 -9 15 3
25 2 21 -1 -3 -4 8 -13 25 -20 18 -7 29 -16 26 -20 -4 -3 -15 0 -24 8 -16 13
-17 12 -4 -3 7 -10 20 -18 28 -18 7 0 16 -7 19 -15 4 -8 10 -12 15 -9 5 3 9 0
9 -6 0 -6 4 -9 9 -6 5 3 8 -2 7 -12 0 -9 4 -16 11 -15 7 2 10 -4 6 -13 -5 -13
-7 -13 -23 1 -12 11 -20 13 -25 5 -4 -6 -1 -9 7 -8 7 2 13 -4 12 -12 -1 -9 7
-16 17 -16 10 0 15 4 12 9 -3 5 0 8 8 5 8 -2 23 -23 33 -46 13 -28 25 -41 33
-37 8 2 12 1 9 -4 -3 -5 5 -29 18 -54 12 -26 19 -44 14 -41 -10 6 -10 1 -2
-20 3 -9 9 -14 13 -12 6 4 10 -13 12 -56 0 -10 3 -18 7 -18 4 0 7 -31 7 -69 0
-38 -3 -67 -7 -64 -5 2 -8 -3 -8 -12 0 -9 4 -14 8 -11 5 3 8 -10 8 -29 -1 -36
-15 -38 -17 -2 -1 16 -3 17 -6 5 -2 -9 1 -26 7 -38 6 -11 7 -26 3 -33 -4 -6
-6 -20 -5 -30 2 -9 -2 -17 -8 -17 -6 0 -8 -4 -5 -10 3 -5 1 -10 -5 -10 -6 0
-9 -4 -6 -9 3 -5 -14 -8 -38 -8 -29 0 -59 -8 -91 -26 -39 -22 -50 -25 -63 -15
-13 11 -14 11 -8 0 11 -19 -3 -54 -20 -48 -9 3 -12 1 -9 -5 4 -5 1 -17 -6 -25
-10 -12 -14 -12 -21 -2 -5 8 -6 2 -2 -15 6 -27 -10 -39 -19 -14 -7 17 1 -131
8 -154 4 -10 0 -28 -8 -40 -14 -19 -16 -19 -25 -4 -8 16 -9 16 -15 1 -5 -11
-3 -15 4 -10 7 4 10 1 7 -7 -3 -8 -17 -14 -31 -13 -15 0 -27 -4 -27 -8 0 -16
-17 -7 -29 15 -11 21 -8 5 6 -30 4 -10 2 -14 -4 -10 -5 3 -36 -1 -69 -10 -61
-16 -286 -25 -278 -11 3 5 -7 8 -23 8 -15 1 -39 7 -52 14 -13 7 -33 12 -45 9
-20 -3 -20 -3 -1 6 17 9 15 10 -12 8 -19 -1 -40 6 -52 17 -11 10 -25 15 -30
11 -6 -3 -11 -2 -11 4 0 5 -8 12 -18 15 -9 3 -41 28 -70 54 -50 46 -52 50 -36
66 9 10 24 14 33 11 12 -5 13 -4 4 6 -9 9 -17 8 -37 -4 -27 -18 -63 -13 -47 7
12 15 -3 41 -18 32 -7 -5 -9 -1 -5 9 4 10 2 15 -6 13 -7 -2 -24 20 -37 47 -14
28 -29 58 -34 67 -5 10 -6 25 -2 34 4 11 2 15 -4 11 -6 -4 -13 2 -16 13 -3 12
-1 18 5 14 6 -4 3 5 -6 19 -14 20 -17 50 -15 171 0 100 4 144 12 139 6 -4 8 2
4 17 -7 28 9 73 24 64 7 -4 7 2 -1 17 l-13 24 22 -20 22 -19 -10 27 c-10 27
-6 57 9 57 4 0 11 11 14 25 9 35 106 137 124 130 12 -4 12 -2 3 8 -9 11 -8 17
4 27 13 11 15 10 10 -6 -4 -10 1 -7 9 8 15 25 50 45 69 40 5 -1 6 2 2 8 -3 6
4 10 17 10 17 0 19 3 9 9 -11 7 -8 11 10 17 13 5 29 9 34 10 6 0 24 7 40 14
17 7 36 12 44 11 7 -1 10 2 7 8 -4 6 6 8 29 4 24 -4 35 -2 35 7 0 9 4 9 17 -1
9 -8 14 -9 10 -2 -10 16 11 22 58 17 22 -3 67 -6 100 -7z m513 -312 c-3 -3 -9
2 -12 12 -6 14 -5 15 5 6 7 -7 10 -15 7 -18z m-214 -760 c-4 -8 -8 -15 -10
-15 -2 0 -4 7 -4 15 0 8 4 15 10 15 5 0 7 -7 4 -15z"/>
<path d="M668 1363 c7 -3 16 -2 19 1 4 3 -2 6 -13 5 -11 0 -14 -3 -6 -6z"/>
<path d="M1060 1290 c0 -5 5 -10 11 -10 5 0 7 5 4 10 -3 6 -8 10 -11 10 -2 0
-4 -4 -4 -10z"/>
<path d="M956 1262 c-3 -5 1 -9 9 -9 8 0 12 4 9 9 -3 4 -7 8 -9 8 -2 0 -6 -4
-9 -8z"/>
<path d="M928 1218 c-10 -10 -20 -30 -22 -45 -6 -31 -39 -63 -65 -63 -9 0 -22
-5 -29 -12 -9 -9 -15 -9 -24 0 -13 13 -219 17 -232 5 -4 -5 -11 -8 -15 -8 -3
0 -22 -12 -41 -27 l-35 -27 -2 -98 c-2 -79 1 -101 15 -116 9 -10 12 -17 7 -16
-9 2 -45 -11 -84 -30 -24 -12 -23 -26 5 -57 16 -17 24 -22 21 -11 -4 9 -2 17
3 17 6 0 10 -4 10 -10 0 -5 6 -10 13 -10 9 0 12 -43 12 -181 0 -180 0 -180 25
-200 14 -12 20 -18 13 -15 -6 4 -14 2 -17 -3 -4 -5 2 -8 11 -7 10 2 28 -3 40
-11 17 -11 56 -14 177 -12 139 2 158 1 176 -16 11 -10 20 -23 20 -29 0 -6 -7
-3 -15 8 -13 18 -14 18 -12 -2 1 -15 7 -19 24 -16 15 3 22 0 21 -8 -4 -17 24
-21 45 -6 10 8 19 23 20 35 0 13 7 25 14 27 7 3 12 2 10 -2 -1 -4 3 -7 8 -7 6
0 9 4 7 9 -2 5 6 15 18 23 24 17 26 38 5 47 -8 3 -15 11 -15 17 0 8 4 8 15 -1
10 -9 15 -9 15 -1 0 10 -6 12 -27 10 -4 0 -11 8 -15 18 -6 14 -7 12 -5 -9 3
-23 2 -25 -15 -15 -10 7 -18 22 -18 34 0 13 -5 23 -11 23 -8 0 -7 6 2 17 11
12 15 68 19 224 3 114 2 205 -2 202 -5 -2 -8 2 -8 9 0 7 -3 24 -7 37 -5 18 -3
22 7 16 10 -6 12 -4 7 10 -4 9 -3 23 2 29 5 6 10 20 12 30 3 11 14 21 29 23
13 2 35 11 49 20 22 14 24 14 18 -1 -4 -11 -3 -15 4 -11 25 16 -21 85 -56 85
-27 0 -67 41 -70 72 -4 37 -4 38 -19 38 -8 0 -16 4 -18 8 -1 4 -11 0 -20 -10z
m32 -28 c0 -53 53 -110 102 -110 18 0 28 -5 28 -15 0 -10 -10 -15 -29 -15 -37
0 -89 -48 -97 -89 -8 -39 -20 -40 -28 0 -8 43 -57 89 -95 89 -21 0 -31 5 -31
15 0 10 10 15 29 15 42 0 79 35 92 86 12 45 29 60 29 24z m-170 -125 c0 -12
-20 -15 -119 -15 -117 0 -120 -1 -140 -26 -17 -22 -21 -41 -21 -110 0 -49 -4
-84 -10 -84 -13 0 -13 176 0 200 21 38 59 49 178 50 93 0 112 -3 112 -15z m98
-61 c22 -15 22 -19 22 -248 0 -191 -3 -236 -14 -245 -20 -17 -322 -17 -342 0
-16 13 -19 69 -5 69 5 0 11 -12 13 -27 l3 -28 158 -3 157 -3 0 236 0 236 -157
-3 -158 -3 0 -24 c0 -14 -6 -26 -13 -29 -8 -2 -12 7 -12 27 0 53 25 61 185 61
111 0 145 -3 163 -16z m-78 -51 c11 -17 11 -17 6 -1 -4 14 0 17 17 14 12 -3
24 -5 27 -5 3 -1 -2 -6 -10 -11 -10 -6 -11 -10 -2 -10 9 0 12 -46 12 -195 l0
-195 -115 0 c-70 0 -115 4 -115 10 0 6 -5 10 -11 10 -5 0 -7 -4 -4 -10 3 -5 1
-10 -5 -10 -6 0 -15 11 -22 25 -8 19 -8 28 3 42 9 11 10 14 2 9 -7 -4 -13 -2
-13 3 0 6 5 11 11 11 6 0 8 7 5 16 -4 11 -2 15 8 11 10 -4 13 -1 10 7 -3 7 2
16 11 20 9 3 14 10 11 15 -3 5 3 7 14 4 34 -9 66 4 67 29 3 30 -13 46 -52 54
-19 3 -42 15 -52 27 -10 11 -13 17 -7 14 7 -4 14 -1 17 7 3 8 -1 13 -11 12
-13 -1 -16 6 -15 27 1 15 -2 25 -8 22 -5 -4 -9 -2 -9 4 0 6 12 17 28 26 27 15
27 16 2 10 -22 -4 -21 -3 5 10 18 8 61 14 107 15 63 0 79 -3 88 -17z m-241
-88 c12 -49 57 -91 104 -97 42 -5 37 -22 -7 -29 -41 -7 -95 -53 -97 -84 -1 -8
-2 -20 -3 -27 -2 -22 -26 -20 -26 2 0 49 -46 98 -104 109 -39 8 -46 31 -11 31
56 0 115 58 115 114 0 41 17 30 29 -19z m391 -195 c0 -153 -4 -240 -10 -240
-6 0 -10 87 -10 240 0 153 4 240 10 240 6 0 10 -87 10 -240z m-450 -140 c0
-147 1 -152 25 -175 23 -24 29 -25 160 -25 83 0 135 -4 135 -10 0 -6 -54 -10
-143 -10 l-143 0 -27 28 c-27 28 -27 28 -27 185 0 98 4 157 10 157 6 0 10 -57
10 -150z m39 -44 c9 -10 8 -15 -2 -19 -8 -3 -13 3 -13 14 0 23 0 23 15 5z
m361 -17 c0 -6 -4 -7 -10 -4 -5 3 -10 11 -10 16 0 6 5 7 10 4 6 -3 10 -11 10
-16z m-16 -25 c21 -20 20 -43 -1 -66 -14 -16 -34 -18 -174 -18 -146 0 -159 1
-169 19 -14 27 -13 47 6 65 23 23 315 23 338 0z m113 -104 c18 -8 33 -17 33
-20 0 -3 -15 -12 -33 -20 -22 -10 -35 -26 -42 -47 -11 -41 -21 -42 -30 -3 -7
32 -38 60 -67 60 -29 0 -20 15 15 25 23 7 37 21 51 49 l19 39 11 -34 c7 -23
22 -39 43 -49z"/>
<path d="M915 1096 l-30 -31 33 -31 32 -32 33 32 32 31 -33 33 c-19 17 -34 31
-35 31 -1 -1 -15 -16 -32 -33z m55 -32 c0 -8 -5 -14 -11 -14 -6 0 -8 8 -5 18
6 15 5 15 -8 -1 -8 -11 -17 -14 -20 -8 -7 11 24 32 36 25 5 -3 8 -12 8 -20z"/>
<path d="M536 812 c-3 -10 -20 -26 -37 -36 l-31 -19 31 -19 c17 -11 31 -23 31
-26 0 -4 4 -13 9 -21 7 -10 17 -5 47 25 l39 39 -37 38 c-44 43 -45 43 -52 19z
m30 -38 c-3 -8 -2 -12 4 -9 14 9 12 -19 -2 -33 -15 -15 -28 -15 -28 -1 0 5 4
7 10 4 6 -4 7 1 3 11 -4 11 -8 13 -11 6 -5 -17 -22 -15 -22 3 0 13 26 34 44
35 4 0 5 -7 2 -16z"/>
<path d="M570 425 c-10 -12 -10 -18 0 -30 11 -13 38 -15 159 -13 l146 3 0 25
0 25 -146 3 c-121 2 -148 0 -159 -13z"/>
<path d="M930 334 c-11 -12 -10 -18 3 -32 16 -15 18 -15 34 0 13 14 14 20 3
32 -7 9 -16 16 -20 16 -4 0 -13 -7 -20 -16z"/>
<path d="M1031 1224 c0 -11 3 -14 6 -6 3 7 2 16 -1 19 -3 4 -6 -2 -5 -13z"/>
<path d="M892 1210 c0 -14 2 -19 5 -12 2 6 2 18 0 25 -3 6 -5 1 -5 -13z"/>
<path d="M880 1170 c0 -5 5 -10 11 -10 5 0 7 5 4 10 -3 6 -8 10 -11 10 -2 0
-4 -4 -4 -10z"/>
<path d="M997 1162 c3 -7 9 -10 12 -5 3 4 10 11 15 15 4 4 -1 6 -12 5 -12 -1
-18 -6 -15 -15z"/>
<path d="M1020 1155 c0 -5 5 -17 10 -25 5 -8 10 -10 10 -5 0 6 -5 17 -10 25
-5 8 -10 11 -10 5z"/>
<path d="M222 1095 c-1 -13 2 -26 6 -29 4 -2 7 6 7 20 -2 32 -10 39 -13 9z"/>
<path d="M196 1075 c-9 -26 -7 -32 5 -12 6 10 9 21 6 23 -2 3 -7 -2 -11 -11z"/>
<path d="M1016 961 c-4 -6 -3 -18 2 -27 8 -14 10 -14 15 -2 7 19 -8 44 -17 29z"/>
<path d="M141 894 c0 -11 3 -14 6 -6 3 7 2 16 -1 19 -3 4 -6 -2 -5 -13z"/>
<path d="M1382 800 c0 -14 2 -19 5 -12 2 6 2 18 0 25 -3 6 -5 1 -5 -13z"/>
<path d="M1012 563 c-1 -50 -4 -97 -5 -105 -2 -7 -2 -10 0 -5 3 4 8 5 11 3 4
-2 6 28 4 67 -4 120 -9 137 -10 40z"/>
<path d="M139 518 c10 -14 11 -21 2 -32 -7 -8 -8 -17 -3 -20 18 -11 22 38 5
54 -15 14 -16 13 -4 -2z"/>
<path d="M1288 513 c6 -2 18 -2 25 0 6 3 1 5 -13 5 -14 0 -19 -2 -12 -5z"/>
<path d="M290 266 c0 -2 7 -7 16 -10 8 -3 12 -2 9 4 -6 10 -25 14 -25 6z"/>
<path d="M1061 254 c0 -11 3 -14 6 -6 3 7 2 16 -1 19 -3 4 -6 -2 -5 -13z"/>
<path d="M1000 241 c0 -5 7 -12 16 -15 14 -5 15 -4 4 9 -14 17 -20 19 -20 6z"/>
<path d="M1068 195 c2 -14 6 -25 8 -25 2 0 4 11 4 25 0 14 -4 25 -9 25 -4 0
-6 -11 -3 -25z"/>
<path d="M366 175 c10 -8 24 -14 29 -14 6 0 1 6 -9 14 -11 8 -24 15 -30 15 -5
0 -1 -7 10 -15z"/>
<path d="M461 131 c-10 -6 -9 -10 3 -14 8 -3 18 -2 21 3 8 13 -9 20 -24 11z"/>
<path d="M539 132 c11 -8 11 -10 0 -14 -10 -3 -9 -6 3 -10 11 -5 15 -2 14 10
-2 9 -9 18 -17 20 -12 3 -12 2 0 -6z"/>
<path d="M420 1386 c0 -2 7 -7 16 -10 8 -3 12 -2 9 4 -6 10 -25 14 -25 6z"/>
<path d="M1137 1327 c3 -5 11 -6 19 -3 7 3 20 -1 28 -10 13 -12 15 -12 13 3
-1 13 -10 18 -33 18 -18 0 -30 -4 -27 -8z"/>
<path d="M243 1245 c0 -8 4 -12 9 -9 5 3 6 10 3 15 -9 13 -12 11 -12 -6z"/>
<path d="M1233 1247 c-3 -6 -1 -7 5 -3 6 3 18 -4 26 -16 9 -12 16 -17 16 -11
0 7 -5 15 -10 18 -6 4 -8 10 -6 14 3 4 -2 8 -10 8 -8 0 -18 -5 -21 -10z"/>
<path d="M1410 981 c0 -6 4 -13 10 -16 6 -3 7 1 4 9 -7 18 -14 21 -14 7z"/>
<path d="M6 537 c3 -10 9 -15 12 -12 3 3 0 11 -7 18 -10 9 -11 8 -5 -6z"/>
<path d="M41 524 c0 -11 3 -14 6 -6 3 7 2 16 -1 19 -3 4 -6 -2 -5 -13z"/>
<path d="M10 501 c0 -6 4 -13 10 -16 6 -3 7 1 4 9 -7 18 -14 21 -14 7z"/>
<path d="M1480 446 c0 -2 8 -10 18 -17 15 -13 16 -12 3 4 -13 16 -21 21 -21
13z"/>
<path d="M84 360 c0 -13 4 -16 10 -10 7 7 7 13 0 20 -6 6 -10 3 -10 -10z"/>
<path d="M1287 363 c3 -7 6 -13 8 -13 2 0 5 6 8 13 3 8 -1 14 -8 14 -7 0 -11
-6 -8 -14z"/>
<path d="M1327 341 c-2 -11 -15 -21 -28 -23 -34 -5 -36 -28 -2 -28 l29 0 -4
-65 c-4 -61 -3 -65 17 -65 20 0 21 5 21 100 0 78 -3 100 -14 100 -7 0 -16 -9
-19 -19z"/>
<path d="M126 335 c-9 -26 -7 -32 5 -12 6 10 9 21 6 23 -2 3 -7 -2 -11 -11z"/>
<path d="M190 245 c13 -14 26 -25 28 -25 3 0 -5 11 -18 25 -13 14 -26 25 -28
25 -3 0 5 -11 18 -25z"/>
<path d="M160 241 c0 -6 4 -13 10 -16 6 -3 7 1 4 9 -7 18 -14 21 -14 7z"/>
<path d="M247 183 c-6 -13 -3 -33 6 -33 28 0 30 2 14 11 -9 6 -15 14 -12 20 4
5 4 9 1 9 -3 0 -7 -3 -9 -7z"/>
<path d="M1151 124 c0 -11 3 -14 6 -6 3 7 2 16 -1 19 -3 4 -6 -2 -5 -13z"/>
<path d="M1166 102 c-6 -10 39 -48 81 -70 12 -7 48 -11 80 -11 l58 2 -55 6
c-59 7 -114 32 -142 63 -9 10 -19 15 -22 10z"/>
<path d="M1102 93 c-6 -2 -10 -9 -6 -14 8 -14 21 -11 21 6 0 8 -1 15 -1 14 -1
0 -7 -3 -14 -6z"/>
<path d="M395 81 c-3 -5 -2 -12 3 -15 5 -3 9 1 9 9 0 17 -3 19 -12 6z"/>
<path d="M915 21 c-6 -11 13 -26 22 -17 4 3 1 6 -6 6 -7 0 -9 5 -6 10 3 6 4
10 1 10 -3 0 -7 -4 -11 -9z"/>
<path d="M493 13 c9 -2 23 -2 30 0 6 3 -1 5 -18 5 -16 0 -22 -2 -12 -5z"/>
</g>
</svg>
