<?xml version="1.0" standalone="no"?>
<!DOCTYPE svg PUBLIC "-//W3C//DTD SVG 20010904//EN"
 "http://www.w3.org/TR/2001/REC-SVG-20010904/DTD/svg10.dtd">
<svg version="1.0" xmlns="http://www.w3.org/2000/svg"
 width="154.000000pt" height="143.000000pt" viewBox="0 0 154.000000 143.000000"
 preserveAspectRatio="xMidYMid meet">
<metadata>
Created by potrace 1.10, written by Peter Selinger 2001-2011
</metadata>
<g transform="translate(0.000000,143.000000) scale(0.100000,-0.100000)"
fill="#000000" stroke="none">
<path d="M560 1410 c-138 -26 -242 -82 -351 -190 -123 -123 -183 -243 -198
-398 -6 -64 -5 -71 7 -55 7 10 18 17 23 15 6 -1 8 2 4 8 -3 6 -10 8 -15 5 -4
-3 -6 4 -3 15 3 11 9 18 13 15 4 -2 7 9 8 25 0 16 4 35 9 42 4 7 8 18 8 23 1
6 5 19 10 30 4 11 14 36 22 55 28 70 38 90 46 90 5 0 15 7 23 15 18 18 4 20
-16 3 -12 -11 -12 -10 -1 5 7 9 19 17 25 17 6 0 20 14 30 30 9 17 21 28 27 25
5 -3 6 1 3 9 -4 10 5 20 28 30 18 8 26 15 18 15 -8 1 6 12 33 24 26 13 45 25
43 28 -3 3 4 10 14 17 12 7 20 8 20 2 0 -5 -5 -10 -12 -10 -6 0 -8 -3 -5 -7 4
-3 16 3 27 14 10 12 43 29 72 38 29 9 60 19 68 22 26 9 157 17 240 14 33 -1
41 -4 30 -11 -11 -7 -5 -8 19 -3 23 4 32 3 28 -5 -4 -6 0 -8 11 -6 22 6 105
-30 94 -41 -4 -5 -1 -5 6 -1 7 4 25 -2 42 -14 17 -12 30 -18 30 -13 0 4 4 3 8
-2 13 -20 69 -54 76 -48 4 4 4 -1 0 -12 -4 -11 -4 -17 1 -13 11 10 86 -74 80
-90 -3 -7 -1 -10 5 -7 5 3 18 -5 29 -17 14 -14 17 -24 10 -29 -7 -4 -5 -8 6
-13 9 -3 14 -10 11 -14 -3 -5 4 -15 14 -22 14 -10 18 -21 13 -39 -3 -15 -2
-22 3 -18 15 14 36 -88 41 -203 6 -131 -9 -225 -33 -216 -8 3 -13 2 -10 -3 3
-5 -11 -12 -32 -15 -48 -8 -133 -47 -126 -57 3 -5 -1 -7 -8 -4 -7 2 -25 -14
-41 -36 -15 -22 -32 -37 -37 -34 -6 4 -9 3 -8 -2 1 -4 -3 -35 -10 -68 -7 -33
-11 -80 -10 -105 3 -43 2 -45 -37 -65 -22 -11 -41 -23 -43 -26 -2 -4 -12 -5
-22 -2 -11 3 -20 0 -20 -6 0 -6 -3 -10 -7 -9 -5 1 -27 -4 -51 -11 -65 -18
-271 -9 -352 16 -90 27 -186 83 -172 98 4 5 2 5 -4 2 -15 -9 -86 53 -80 69 3
8 2 13 -2 13 -24 -4 -41 3 -46 19 -4 10 -14 27 -24 38 -10 10 -33 52 -52 92
-19 39 -38 72 -42 72 -3 0 -5 19 -3 42 2 25 1 37 -4 29 -7 -11 -19 20 -26 74
-3 19 -17 45 -24 45 -11 0 6 -124 25 -189 29 -100 74 -171 169 -267 98 -98
175 -145 299 -183 94 -29 271 -29 371 -1 104 29 201 81 197 105 -15 118 -15
123 12 180 43 86 129 137 218 128 l37 -4 18 58 c14 45 18 91 18 203 0 132 -3
152 -27 218 -74 204 -232 361 -428 426 -69 23 -107 29 -200 32 -63 1 -135 -1
-160 -6z"/>
<path d="M662 1184 c-8 -8 -11 -22 -8 -30 3 -8 2 -13 -3 -10 -5 3 -8 -16 -6
-44 2 -49 2 -49 -34 -61 -20 -6 -42 -17 -50 -23 -12 -9 -13 -8 -6 4 8 13 7 13
-8 1 -13 -10 -17 -10 -17 -1 0 7 -6 10 -12 8 -7 -3 -21 4 -30 14 -10 10 -15
18 -12 18 3 0 -1 7 -10 15 -17 18 -30 20 -20 3 5 -7 3 -8 -5 -4 -7 5 -10 15
-6 25 3 9 -9 1 -27 -16 l-33 -33 20 -37 c11 -20 19 -40 18 -44 -1 -4 9 -6 22
-4 13 1 22 -2 19 -6 -3 -5 -6 -27 -6 -49 0 -22 -3 -38 -7 -36 -4 3 -12 -8 -19
-22 -10 -24 -16 -27 -54 -24 -46 3 -95 -17 -90 -36 1 -7 -3 -12 -8 -12 -6 0
-1 -11 12 -24 19 -20 34 -25 80 -27 31 -1 55 -6 52 -10 -3 -5 4 -16 16 -26 30
-26 26 -71 -10 -112 -34 -39 -48 -77 -32 -93 11 -11 93 -18 87 -8 -5 9 33 50
45 50 6 0 10 -12 10 -27 0 -22 -2 -25 -10 -13 -8 13 -10 12 -10 -2 0 -10 4
-18 9 -18 5 0 11 -13 13 -29 3 -21 1 -28 -9 -24 -16 6 -18 -13 -2 -22 6 -4 8
-13 5 -21 -3 -8 4 -24 16 -36 20 -20 36 -23 121 -26 128 -5 188 3 180 25 -4
11 -2 14 5 9 12 -7 16 24 13 84 -1 14 8 39 20 55 12 17 16 25 9 18 -11 -10
-16 -9 -27 5 -12 15 -13 14 -3 -8 11 -24 10 -24 -4 -6 -18 22 -6 44 16 30 7
-5 18 -9 23 -9 6 0 10 -5 10 -12 0 -33 57 -40 85 -11 15 16 17 25 9 35 -6 7
-9 13 -5 13 6 0 -22 36 -54 68 -18 19 -22 45 -6 39 9 -4 12 4 11 24 -1 16 0
27 3 24 2 -2 12 5 21 16 12 15 28 20 69 21 28 0 52 4 52 10 0 5 5 6 12 2 6 -4
8 -3 4 4 -3 5 -2 12 4 14 16 5 -1 47 -21 53 -10 4 -19 12 -19 18 0 9 -3 8 -8
-1 -7 -9 -16 -10 -41 -1 -27 9 -35 9 -42 -2 -8 -11 -12 -10 -24 5 -8 11 -15
26 -15 33 0 8 -7 25 -16 38 -10 15 -12 25 -5 25 6 0 11 5 11 10 0 6 19 29 42
50 23 22 35 40 27 40 -12 0 -12 2 0 9 20 13 -3 41 -33 41 -12 0 -28 6 -35 13
-11 10 -12 8 -6 -12 4 -14 3 -21 -2 -18 -12 7 -53 -33 -50 -48 1 -5 -10 -10
-25 -10 -15 -1 -24 3 -21 9 4 5 -1 7 -10 3 -9 -3 -19 -1 -23 4 -3 6 -16 9 -29
7 -21 -4 -22 -1 -24 66 -2 48 -7 76 -18 88 -20 22 -43 22 -61 2z m43 -74 c0
-42 -4 -65 -12 -67 -10 -4 -13 14 -13 67 0 53 3 71 13 68 8 -3 12 -26 12 -68z
m-235 -88 c39 -38 51 -62 30 -62 -9 0 -100 89 -100 97 0 2 7 3 15 3 8 0 32
-17 55 -38z m510 31 c0 -10 -82 -93 -92 -93 -18 0 -6 27 29 62 34 35 63 49 63
31z m-246 -39 c32 -12 15 -24 -34 -24 -198 0 -293 -231 -152 -365 18 -17 32
-40 32 -52 0 -23 2 -23 115 -23 114 0 115 0 115 23 0 13 12 34 26 48 42 39 68
98 68 157 0 35 4 52 13 52 9 0 13 -16 13 -53 0 -61 -36 -145 -77 -177 -13 -10
-22 -23 -19 -28 3 -5 -2 -18 -10 -30 -14 -20 -24 -22 -129 -22 -118 0 -145 9
-145 47 0 9 -15 33 -34 54 -32 34 -66 117 -66 159 0 49 34 124 75 165 56 56
156 89 209 69z m74 -28 c30 -16 80 -67 104 -106 14 -24 14 -26 -1 -27 -9 0
-29 20 -46 45 -17 26 -47 54 -67 65 -21 10 -38 23 -38 28 0 13 17 11 48 -5z
m-8 -52 c0 4 6 1 14 -6 7 -7 11 -19 8 -27 -4 -10 -1 -13 12 -8 10 4 15 3 11
-3 -3 -5 4 -19 15 -30 11 -11 18 -25 15 -31 -6 -9 -15 -68 -19 -116 0 -11 -4
-19 -8 -16 -5 2 -8 -3 -8 -12 0 -9 -4 -14 -9 -10 -5 3 -11 -5 -13 -17 -4 -27
-34 -32 -32 -6 1 10 -2 15 -7 12 -5 -3 -6 2 -3 11 5 13 9 13 22 3 14 -12 14
-10 2 12 -12 23 -12 24 4 11 14 -12 16 -12 11 2 -4 8 -2 18 4 21 6 4 8 13 4
21 -3 9 1 15 11 15 9 0 16 8 15 18 0 11 -2 13 -6 4 -4 -10 -9 -7 -17 9 -6 13
-20 28 -31 34 -11 5 -21 21 -22 35 -10 102 -10 100 9 83 10 -9 18 -13 18 -9z
m-140 7 c0 -5 -6 -16 -14 -23 -7 -8 -17 -24 -20 -36 -4 -12 -12 -20 -17 -17
-5 3 -6 -2 -2 -11 5 -13 3 -15 -7 -9 -9 5 -11 4 -6 -4 9 -13 -18 -43 -29 -33
-5 4 -5 2 -2 -4 3 -6 0 -31 -8 -56 -12 -42 -12 -45 3 -41 19 4 62 -31 62 -50
0 -7 -4 -19 -9 -26 -8 -12 -13 -11 -30 10 -11 13 -20 28 -21 32 0 5 -5 5 -10
2 -6 -4 -9 -1 -8 7 2 7 -3 12 -11 10 -12 -3 -12 -1 -1 13 9 11 10 19 3 23 -15
10 -23 62 -9 62 6 0 4 4 -4 10 -12 8 -12 11 2 27 8 10 19 28 22 40 10 31 65
75 88 70 10 -3 18 -1 18 4 0 5 2 9 5 9 3 0 5 -4 5 -9z m70 -69 l0 -78 34 4
c18 2 36 0 40 -6 3 -5 -24 -54 -59 -108 -36 -54 -66 -103 -68 -109 -10 -25
-18 9 -18 79 l0 76 -40 0 c-27 0 -39 4 -39 14 0 8 4 17 8 20 5 3 33 46 63 95
30 50 60 91 67 91 8 0 12 -22 12 -78z m-302 -94 c-6 -17 -130 -17 -136 0 -3 9
16 12 68 12 52 0 71 -3 68 -12z m664 -3 c-4 -15 -124 -13 -130 3 -3 10 12 12
65 10 39 -2 67 -7 65 -13z m-313 -166 c-14 -27 -37 -24 -35 5 0 13 4 22 9 19
4 -2 7 1 7 8 0 9 4 8 15 -1 11 -9 12 -17 4 -31z m-309 -74 c-45 -46 -60 -54
-60 -33 0 21 83 99 94 88 7 -7 -5 -25 -34 -55z m468 22 c38 -39 53 -67 35 -67
-13 0 -93 84 -93 97 0 22 14 15 58 -30z m-114 -66 c17 -18 17 -20 -3 -40 -19
-19 -33 -21 -127 -21 -112 0 -144 9 -144 40 0 31 29 39 146 40 97 0 113 -2
128 -19z m1 -87 c14 -14 14 -19 2 -38 -13 -19 -25 -21 -126 -24 -116 -3 -151
6 -151 36 0 36 21 42 141 42 95 0 121 -3 134 -16z"/>
<path d="M686 868 c-46 -74 -66 -108 -66 -113 0 -3 12 -4 28 -3 26 3 27 1 32
-57 l5 -60 42 68 42 67 -35 0 -36 0 7 60 c8 65 3 73 -19 38z"/>
<path d="M580 470 c0 -6 45 -10 115 -10 70 0 115 4 115 10 0 6 -45 10 -115 10
-70 0 -115 -4 -115 -10z"/>
<path d="M580 380 c0 -6 45 -10 115 -10 70 0 115 4 115 10 0 6 -45 10 -115 10
-70 0 -115 -4 -115 -10z"/>
<path d="M1398 445 c23 -14 42 -30 42 -36 0 -5 5 -9 10 -9 6 0 10 3 10 8 0 9
-58 49 -85 57 -11 4 -1 -5 23 -20z"/>
<path d="M1460 385 c0 -3 10 -24 21 -47 32 -63 16 -153 -39 -219 -49 -59 -164
-85 -239 -54 -19 8 -41 15 -47 14 -6 0 9 -9 34 -19 65 -27 130 -25 195 6 59
27 87 59 110 125 20 56 19 98 -5 153 -17 40 -30 58 -30 41z"/>
<path d="M1246 316 c-47 -84 -47 -96 4 -96 36 0 40 -3 40 -24 0 -19 4 -23 20
-19 11 3 20 14 20 24 0 11 5 19 10 19 6 0 10 7 10 15 0 8 -4 15 -10 15 -6 0
-10 28 -10 65 0 62 -1 65 -24 65 -19 0 -31 -13 -60 -64z m44 -21 c0 -42 -2
-45 -26 -45 -14 0 -24 3 -22 8 19 38 42 82 45 82 2 0 3 -20 3 -45z"/>
<path d="M1110 123 c0 -13 29 -38 35 -31 3 3 -4 13 -15 23 -11 10 -20 13 -20
8z"/>
</g>
</svg>
