<?xml version="1.0" standalone="no"?>
<!DOCTYPE svg PUBLIC "-//W3C//DTD SVG 20010904//EN"
 "http://www.w3.org/TR/2001/REC-SVG-20010904/DTD/svg10.dtd">
<svg version="1.0" xmlns="http://www.w3.org/2000/svg"
 width="156.000000pt" height="141.000000pt" viewBox="0 0 156.000000 141.000000"
 preserveAspectRatio="xMidYMid meet">
<metadata>
Created by potrace 1.10, written by Peter Selinger 2001-2011
</metadata>
<g transform="translate(0.000000,141.000000) scale(0.100000,-0.100000)"
fill="#000000" stroke="none">
<path d="M539 1386 c-158 -44 -305 -152 -391 -287 -76 -121 -108 -229 -108
-369 0 -165 40 -290 134 -418 194 -264 575 -349 867 -196 61 32 69 39 62 58
-14 38 -9 139 9 176 36 75 113 121 202 121 l52 0 18 62 c55 183 17 420 -93
580 -113 165 -323 288 -490 287 l-66 -1 50 -19 c57 -23 58 -23 51 -11 -3 4 13
5 37 0 23 -4 47 -8 52 -9 6 0 3 -5 -5 -10 -11 -8 -7 -9 14 -4 18 4 27 3 23 -3
-3 -5 -1 -10 6 -10 24 0 88 -33 83 -42 -4 -5 14 -17 39 -27 38 -14 45 -20 40
-38 -3 -12 -2 -15 1 -8 8 17 28 15 47 -6 20 -21 22 -32 6 -32 -5 0 -8 3 -6 8
3 4 -1 12 -8 19 -10 9 -17 7 -31 -10 -17 -19 -17 -20 -1 -8 15 12 19 12 31 -4
10 -15 16 -16 35 -6 21 12 22 11 10 -11 -12 -22 -11 -22 6 -8 10 8 16 9 11 3
-4 -7 2 -20 14 -30 21 -18 28 -39 8 -27 -7 4 -8 3 -4 -5 4 -6 12 -9 17 -6 12
8 31 -43 22 -58 -4 -8 -1 -7 9 1 12 9 18 10 23 2 4 -6 4 -14 1 -17 -3 -4 -6 0
-7 8 0 8 -5 3 -10 -10 -5 -13 -7 -26 -4 -29 3 -3 5 0 5 6 0 21 25 12 37 -13 6
-14 7 -25 2 -25 -4 0 -6 -7 -3 -15 4 -8 11 -12 17 -8 6 3 7 1 3 -5 -4 -6 -2
-20 3 -30 17 -32 29 -163 20 -227 -17 -133 -20 -150 -29 -153 -6 -2 -8 -8 -4
-13 3 -5 -10 -9 -28 -10 -70 -1 -96 -7 -139 -34 -24 -16 -45 -28 -46 -27 -12
8 -13 -1 -2 -15 10 -12 10 -15 1 -9 -8 5 -18 -5 -30 -33 -14 -31 -20 -36 -28
-25 -7 12 -9 7 -10 -17 -1 -18 -6 -35 -13 -37 -6 -2 -11 -8 -11 -14 0 -6 7 -5
16 3 14 12 16 9 13 -26 -1 -22 -9 -48 -18 -58 -13 -16 -13 -17 1 -12 9 4 19 1
24 -6 4 -7 3 -10 -3 -6 -13 8 -26 -20 -16 -35 3 -6 1 -8 -4 -5 -6 4 -22 -2
-36 -13 -28 -22 -42 -26 -31 -9 4 7 1 10 -7 7 -8 -3 -13 -11 -11 -17 1 -7 -2
-10 -7 -7 -9 6 -76 -15 -115 -36 -15 -8 -18 -7 -13 6 4 9 2 16 -3 16 -6 0 -10
-4 -10 -9 0 -5 -43 -11 -95 -13 -52 -2 -95 1 -95 5 0 5 -9 6 -20 2 -11 -3 -36
2 -57 12 -21 10 -45 16 -55 15 -9 -2 -20 2 -24 9 -5 8 -3 9 6 4 8 -5 11 -4 6
3 -4 6 -13 9 -21 6 -8 -3 -29 4 -46 17 -18 13 -29 17 -24 9 5 -9 4 -11 -3 -6
-7 4 -12 14 -12 22 0 8 -5 14 -11 14 -5 0 -7 -6 -3 -12 4 -7 -9 2 -27 20 -19
17 -40 32 -45 32 -15 0 -55 45 -47 53 3 4 1 7 -6 7 -7 0 -9 4 -6 10 4 6 -1 7
-11 3 -12 -4 -15 -3 -10 5 7 12 -22 78 -31 69 -2 -3 3 -18 12 -34 17 -28 17
-28 -1 -7 -38 44 -78 134 -53 118 4 -2 11 0 14 6 4 6 3 10 -2 9 -23 -4 -42 3
-48 19 -30 74 -54 275 -35 297 6 8 9 22 6 32 -3 10 1 45 8 78 8 33 12 64 9 69
-4 5 -1 6 4 3 6 -4 14 4 17 18 9 37 62 120 74 118 6 -2 9 4 6 12 -3 7 -1 22 6
32 10 16 10 16 5 -3 -3 -13 1 -26 10 -34 10 -8 15 -9 15 -1 0 6 -4 11 -10 11
-5 0 -10 5 -10 11 0 6 7 8 18 4 14 -5 15 -4 5 6 -16 16 -17 33 -1 23 7 -4 8
-3 4 4 -4 6 5 18 19 28 13 9 22 20 19 25 -3 5 0 8 8 7 7 -2 12 3 10 11 -3 12
0 12 13 1 13 -11 15 -10 10 1 -3 9 8 20 35 32 23 9 39 21 36 26 -5 8 72 38 87
33 5 -1 6 2 3 7 -7 10 79 36 114 33 23 -2 23 -1 5 8 -17 9 -17 10 6 5 15 -3
44 2 65 9 l39 15 -60 -1 c-33 0 -81 -5 -106 -12z m551 -106 c8 -5 11 -10 5
-10 -5 0 -17 5 -25 10 -8 5 -10 10 -5 10 6 0 17 -5 25 -10z m-1023 -492 c-3
-8 -6 -5 -6 6 -1 11 2 17 5 13 3 -3 4 -12 1 -19z"/>
<path d="M1015 1390 c-3 -5 -1 -10 4 -10 6 0 11 5 11 10 0 6 -2 10 -4 10 -3 0
-8 -4 -11 -10z"/>
<path d="M438 1383 c7 -3 16 -2 19 1 4 3 -2 6 -13 5 -11 0 -14 -3 -6 -6z"/>
<path d="M639 1368 c-8 -28 -5 -35 14 -30 20 5 20 6 1 12 -17 7 -17 8 6 12 23
5 23 5 3 7 -13 0 -23 0 -24 -1z"/>
<path d="M863 1353 c9 -2 23 -2 30 0 6 3 -1 5 -18 5 -16 0 -22 -2 -12 -5z"/>
<path d="M540 1346 c0 -2 11 -6 25 -8 13 -3 22 -1 19 3 -5 9 -44 13 -44 5z"/>
<path d="M858 1333 c7 -3 16 -2 19 1 4 3 -2 6 -13 5 -11 0 -14 -3 -6 -6z"/>
<path d="M1153 1322 c-8 -5 -4 -14 13 -29 13 -12 24 -18 24 -13 0 4 -7 13 -15
20 -8 7 -12 16 -9 21 6 11 3 11 -13 1z"/>
<path d="M1185 1321 c-3 -5 -2 -12 3 -15 5 -3 9 1 9 9 0 17 -3 19 -12 6z"/>
<path d="M585 1240 l-30 -8 27 -1 c15 0 30 4 33 9 3 6 5 9 3 9 -2 -1 -16 -5
-33 -9z"/>
<path d="M886 1238 c3 -4 11 -5 19 -1 21 7 19 12 -4 10 -11 0 -18 -5 -15 -9z"/>
<path d="M1234 1238 c-4 -7 -2 -8 5 -4 6 4 18 3 25 -3 9 -8 13 -7 13 2 0 16
-34 20 -43 5z"/>
<path d="M491 1213 c-20 -16 -22 -26 -19 -108 2 -72 6 -90 18 -90 9 0 14 -8
12 -20 -2 -19 -2 -19 10 1 7 12 19 19 27 16 9 -3 11 0 6 9 -5 8 -5 11 0 7 13
-13 45 12 45 35 0 14 3 18 8 10 4 -7 13 -9 19 -5 6 4 52 5 103 2 50 -3 95 -1
100 4 11 11 30 -1 30 -20 0 -8 10 -19 23 -24 l22 -9 -22 0 c-13 -1 -23 4 -23
10 0 8 -4 8 -14 0 -11 -9 -15 -9 -19 1 -4 10 -6 10 -6 1 -1 -10 -26 -13 -90
-13 -62 0 -91 4 -94 13 -3 7 -6 4 -6 -7 -1 -14 -6 -17 -22 -13 -27 7 -67 -11
-101 -46 -29 -29 -37 -72 -15 -80 9 -3 9 -7 -1 -20 -17 -20 -23 -546 -6 -568
5 -8 10 -26 9 -41 -1 -22 2 -25 13 -15 9 7 10 13 3 15 -6 2 -11 8 -11 14 0 6
6 6 15 -2 18 -15 20 -40 3 -40 -6 0 -8 -3 -4 -7 4 -5 15 1 23 12 15 20 15 20
10 -2 -3 -15 -1 -20 9 -16 8 3 12 8 9 13 -2 4 8 5 23 2 20 -4 22 -7 10 -11
-10 -3 46 -5 124 -4 78 1 148 5 155 7 7 3 15 1 18 -4 9 -15 25 -12 25 5 0 9 7
18 15 21 8 3 24 21 35 39 19 31 20 49 20 336 0 252 -3 308 -15 325 -15 22 -13
60 5 78 5 5 10 47 10 92 0 76 -2 83 -25 98 -13 9 -30 16 -37 15 -7 0 -4 -4 7
-8 16 -6 12 -9 -20 -15 -46 -9 -66 -22 -59 -40 7 -19 -206 -23 -217 -4 -7 11
-9 10 -9 -1 0 -9 -9 -4 -22 12 -13 14 -34 27 -48 29 -14 2 -24 9 -22 16 3 17
-12 15 -37 -5z m29 -40 c0 -25 1 -25 18 -10 23 21 32 21 32 3 0 -8 -7 -16 -15
-20 -42 -16 1 -21 169 -21 l185 0 -20 21 c-15 16 -17 24 -8 29 7 5 19 -2 30
-16 l19 -24 0 33 c0 17 5 32 10 32 6 0 10 -35 10 -85 0 -50 -4 -85 -10 -85 -5
0 -10 12 -10 27 0 25 -1 25 -18 10 -20 -19 -42 -22 -42 -8 0 6 10 17 22 25 19
14 4 15 -165 18 -103 2 -187 1 -187 -1 0 -3 7 -13 17 -23 22 -25 8 -36 -17
-13 -20 18 -20 17 -20 -9 0 -18 -5 -26 -12 -24 -9 3 -14 32 -16 86 -2 68 0 82
13 82 10 0 15 -9 15 -27z m400 -163 c0 -5 6 -7 13 -4 8 3 14 -2 14 -10 0 -11
-5 -13 -18 -5 -22 11 -34 29 -20 29 6 0 11 -4 11 -10z m-320 -30 c0 -5 -8 -10
-18 -10 -23 0 -47 -25 -62 -64 -8 -21 -14 -26 -22 -18 -14 14 7 67 36 87 23
17 66 20 66 5z m325 -16 l25 -27 0 -314 0 -315 -29 -29 -29 -29 -161 0 c-178
0 -202 6 -226 55 -22 48 -23 555 0 555 13 0 15 -37 15 -270 0 -257 1 -271 20
-290 18 -18 33 -20 183 -20 89 0 167 4 173 8 31 20 34 55 34 342 l0 291 -25
24 c-23 24 -29 25 -155 25 -80 0 -130 4 -130 10 0 6 53 10 140 10 140 0 141 0
165 -26z m-47 -40 c22 -15 22 -19 22 -243 0 -163 -3 -230 -12 -239 -17 -17
-309 -17 -326 0 -9 9 -12 77 -12 245 0 210 2 233 18 242 9 6 78 11 152 11 107
0 140 -3 158 -16z m14 -549 c8 -19 8 -31 0 -50 l-12 -25 -153 0 c-164 0 -177
4 -177 50 0 46 13 50 177 50 l153 0 12 -25z"/>
<path d="M577 904 c-4 -4 -7 -106 -7 -226 l0 -219 153 3 152 3 0 220 0 220
-146 3 c-80 1 -148 -1 -152 -4z m266 -27 c-24 -11 -32 -29 -10 -24 9 1 13 -38
15 -165 2 -155 1 -168 -15 -169 -16 0 -15 -2 2 -9 19 -8 19 -9 1 -9 -16 -1
-17 -3 -5 -18 12 -14 12 -15 0 -9 -7 5 -56 8 -108 7 -76 -2 -93 1 -87 11 6 10
5 10 -7 2 -11 -9 -17 -9 -27 2 -11 12 -10 14 5 15 11 0 13 3 6 6 -10 3 -13 46
-12 171 1 99 4 155 9 137 l8 -30 1 27 c1 16 -6 31 -16 37 -23 13 -27 12 97 20
171 10 169 10 143 -2z"/>
<path d="M612 560 c0 -19 2 -27 5 -17 2 9 2 25 0 35 -3 9 -5 1 -5 -18z"/>
<path d="M583 373 c-7 -2 -13 -13 -13 -24 0 -18 9 -19 149 -19 151 0 175 6
151 35 -10 12 -40 15 -144 14 -72 0 -137 -3 -143 -6z"/>
<path d="M615 1220 c-3 -5 -2 -10 4 -10 5 0 13 5 16 10 3 6 2 10 -4 10 -5 0
-13 -4 -16 -10z"/>
<path d="M568 1209 c17 -5 32 -14 32 -19 0 -6 5 -10 12 -10 6 0 3 9 -7 20 -10
11 -30 20 -44 19 -24 -1 -23 -2 7 -10z"/>
<path d="M279 1189 l-24 -21 29 17 c28 17 29 17 22 -1 -6 -15 -5 -17 5 -6 9 8
10 15 3 22 -8 8 -18 4 -35 -11z"/>
<path d="M106 1157 c3 -9 2 -17 -4 -17 -6 0 -12 6 -15 13 -2 6 -4 1 -3 -13 1
-32 32 -36 31 -4 0 12 -4 26 -8 30 -4 5 -5 1 -1 -9z"/>
<path d="M1321 1150 c14 -31 19 -36 19 -24 0 6 -7 19 -16 30 -14 18 -14 18 -3
-6z"/>
<path d="M1209 1138 c-6 -22 -3 -45 6 -45 14 0 17 34 4 42 -5 4 -9 5 -10 3z"/>
<path d="M86 1092 c-3 -5 1 -9 9 -9 8 0 12 4 9 9 -3 4 -7 8 -9 8 -2 0 -6 -4
-9 -8z"/>
<path d="M1403 995 c-3 -9 -3 -18 -1 -21 3 -3 8 4 11 16 6 23 -1 27 -10 5z"/>
<path d="M141 964 c0 -11 3 -14 6 -6 3 7 2 16 -1 19 -3 4 -6 -2 -5 -13z"/>
<path d="M1361 804 c0 -11 3 -14 6 -6 3 7 2 16 -1 19 -3 4 -6 -2 -5 -13z"/>
<path d="M1414 529 c-4 -7 -3 -9 4 -5 5 3 13 0 15 -6 4 -9 6 -10 6 -1 1 17
-16 25 -25 12z"/>
<path d="M104 512 c2 -21 21 -19 23 3 3 20 3 20 -6 0 -6 -16 -9 -17 -13 -5 -3
8 -4 9 -4 2z"/>
<path d="M1421 484 c0 -11 3 -14 6 -6 3 7 2 16 -1 19 -3 4 -6 -2 -5 -13z"/>
<path d="M1380 460 c-8 -5 -3 -10 14 -14 15 -4 46 -27 70 -51 55 -55 72 -117
54 -195 -6 -27 -15 -50 -20 -50 -4 0 -8 -6 -8 -12 -1 -25 -93 -87 -137 -94
-61 -9 -130 4 -156 29 -58 55 -77 70 -77 58 0 -20 51 -62 104 -86 43 -19 56
-20 110 -12 33 5 71 10 83 11 12 0 20 2 18 4 -2 2 14 21 35 42 38 39 70 112
70 160 0 41 -31 121 -58 152 -33 37 -86 68 -102 58z"/>
<path d="M216 357 c3 -10 9 -15 12 -12 3 3 0 11 -7 18 -10 9 -11 8 -5 -6z"/>
<path d="M1279 363 c-9 -2 -23 -19 -31 -37 -16 -32 -16 -33 7 -28 13 2 26 13
28 24 7 27 41 19 45 -10 3 -17 -2 -25 -17 -29 -20 -5 -30 -23 -13 -23 20 0 43
-27 36 -43 -8 -21 -43 -22 -50 -2 -6 15 -44 21 -44 7 0 -4 7 -18 16 -30 17
-25 84 -31 102 -9 20 25 23 55 6 72 -12 12 -14 19 -5 28 17 17 13 45 -9 67
-19 19 -37 23 -71 13z"/>
<path d="M96 333 c-6 -14 -5 -15 5 -6 7 7 10 15 7 18 -3 3 -9 -2 -12 -12z"/>
<path d="M106 303 c-6 -14 -5 -15 5 -6 7 7 10 15 7 18 -3 3 -9 -2 -12 -12z"/>
<path d="M1400 275 c0 -5 5 -17 10 -25 5 -8 10 -10 10 -5 0 6 -5 17 -10 25 -5
8 -10 11 -10 5z"/>
<path d="M265 250 c10 -11 23 -20 28 -20 6 0 2 9 -8 20 -10 11 -23 20 -28 20
-6 0 -2 -9 8 -20z"/>
<path d="M174 239 c-12 -20 12 -31 27 -12 13 17 13 17 -5 3 -18 -14 -19 -13
-13 3 7 19 2 23 -9 6z"/>
<path d="M938 231 c-16 -18 -15 -20 1 -18 9 0 17 9 17 19 0 10 -1 18 -1 18 0
0 -8 -9 -17 -19z"/>
<path d="M376 201 c-3 -5 1 -11 9 -14 9 -4 12 -1 8 9 -6 16 -10 17 -17 5z"/>
<path d="M257 179 c7 -7 15 -10 18 -7 3 3 -2 9 -12 12 -14 6 -15 5 -6 -5z"/>
<path d="M1250 156 c0 -2 8 -10 18 -17 15 -13 16 -12 3 4 -13 16 -21 21 -21
13z"/>
<path d="M260 146 c0 -2 7 -7 16 -10 8 -3 12 -2 9 4 -6 10 -25 14 -25 6z"/>
<path d="M510 120 c8 -5 20 -10 25 -10 6 0 3 5 -5 10 -8 5 -19 10 -25 10 -5 0
-3 -5 5 -10z"/>
<path d="M555 110 c-3 -6 6 -15 20 -20 33 -13 38 -13 30 0 -3 6 -15 10 -26 10
-11 0 -17 5 -14 10 3 6 4 10 1 10 -3 0 -8 -5 -11 -10z"/>
<path d="M875 109 c-4 -6 -5 -12 -2 -15 2 -3 7 2 10 11 7 17 1 20 -8 4z"/>
<path d="M368 73 c7 -3 16 -2 19 1 4 3 -2 6 -13 5 -11 0 -14 -3 -6 -6z"/>
<path d="M1036 71 c-4 -5 3 -7 14 -4 23 6 26 13 6 13 -8 0 -17 -4 -20 -9z"/>
</g>
</svg>
